<svg xmlns="http://www.w3.org/2000/svg" width="587" height="587" viewBox="0 0 587 587">
  <g>
    <path fill="#1a303e" fill-rule="evenodd" d="M324.504 296.961C297.311 274.445 268.331 288.874 255 299c-10.881 9.001-12.578 11.844-18 20-11.369 17.1-18.356 39.481-13 76 2.203 15.025 18.433 30.754 24 34 6.833 3.985 19.362 8.018 25.853 6.269 8.212-2.213 12.387-6.531 13.995-12.982 1.883-7.557-13.41-19.098-18.065-22.974C264.35 394.788 253.521 383.227 259 370c6.28-15.161 26.918-14.716 32.185-14.716 7.013 0 24.303-1.116 35.36 9.941 5.619 5.619 5.718 19.755-8.585 34.058-5.181 5.181-22.511 15.381-21.353 22.268.763 4.539 5.003 14.013 14.393 13.449 2.995-.18 12.065-.689 17.888-3.86 10.574-5.838 24.641-14.81 31.112-37.14 6.27-21.637 1.27-52.423-18.243-78.243-6.427-8.504-10.566-13.259-17.253-18.796M145.751 7.309C133.307 11.567 118 20 110 24c-10 6-15 10-18 13-9 8-15 14-19 18-12 14-19 24-23 32l-10 20c-5 12-8 20-9 26-4 16-4.421 28.414-5.421 36.414-2 25-4 49.535-4 67C21.579 274.07 7.461 310.047 4 342c-1.853 17.105-1.348 32.905 3 59 3 13 6 23 9 31 4 10 7 17 10 22 3 7 7 13 11 18 8 11 14 19 20 25 9 10 16 16 22 21 10 9 18 15 26 20 20 13 35 21 49 27 13 5 22 8 30 11 11 4 21 6 30 7 22 2 40 3 55 2 25-3 42-6 56-9 24-6 40-12 54-17 26-10 43-18 57-26 22-13 35-22 45-29 9-6 15-11 21-17 12-10 19-18 24-24 16.484-14.499 36-55 39-63 7-19 11-34 13-46 2.572-26.762 10.114-62.011-21-128-8.966-19.015-19-31-28-40-12-13-23.924-21.808-28.76-27.078-4.523-4.928-39.562-29.328-48.24-32.922-36.444-15.096-61-34-83-46-22-13-40-27-56-41-9-7-16-11-23-14-17-10-31-15-44-18-14-4-24-5-31-6-18-1-46.835-1.36-69.249 6.309M131 161c6.687-3.645 20.544-5.936 24.656-5.625C179.073 157.148 182.473 165.516 189 169c1.973 1.053 4 2 6 2 10-6 20-12 30-16 8-4 15-6 21-7 10-3 19-5 26-5 12-1 20-1 27-1 8 1 14 1 19 2 8 2 13 3 18 4 12 4 19 7 25 9 11 5 30 14 32 14 7-4 11.877-8.199 15-10 8.103-4.673 19.728-5.452 29-3 8.26 2.184 14.107 6.155 17.005 8.3 15.129 11.198 16.827 22.076 18.195 27.398 1.245 4.843 4.282 17.811-8.2 32.302-5.097 5.918-8 9-10 11-1 1-1 2-1 3 3 8 12.439 28.138 14 47 2.004 24.211 5.807 37.691 1.686 58.962-12.806 66.105-37.364 96.931-87.461 123.454-13.49 7.142-44.806 16.261-72.225 19.584-16.906 2.049-31 0-42-1-22.381-3.114-57.052-17.036-69-25-15.001-9.999-39.243-19.847-64-66-7.395-13.786-18.879-31.646-21-64-.722-11.022-3.55-42.261 7-74 2.463-7.409 5.626-13.236 5.057-15.524-1.501-6.039-5.685-13.364-12.057-24.476-2.683-4.679-4.399-21.313-3.694-26.394 1.304-9.397 4.909-16.15 6.909-20.15 4-6 10.463-9.1 14.785-11.456"/>
    <ellipse fill="#1a313e" cx="210" cy="280" rx="20" ry="20"/>
    <ellipse fill="#1a313e" cx="370" cy="280" rx="20" ry="20"/>
  </g>
</svg>
